<mxfile host="Electron" agent="Mozilla/5.0 (Windows NT 10.0; Win64; x64) AppleWebKit/537.36 (KHTML, like Gecko) draw.io/24.7.17 Chrome/128.0.6613.36 Electron/32.0.1 Safari/537.36" version="24.7.17">
  <diagram name="Page-1" id="a8Y1kBPqQacG8FZIifaG">
    <mxGraphModel dx="3288" dy="1038" grid="1" gridSize="10" guides="1" tooltips="1" connect="1" arrows="1" fold="1" page="1" pageScale="1" pageWidth="850" pageHeight="1100" math="0" shadow="0">
      <root>
        <mxCell id="0" />
        <mxCell id="1" parent="0" />
        <mxCell id="oblVactN97atPOkLyBPr-2" value="" style="edgeStyle=orthogonalEdgeStyle;html=1;verticalAlign=bottom;endArrow=open;endSize=8;strokeColor=#A8201A;rounded=0;labelBackgroundColor=none;fontColor=default;" parent="1" source="oblVactN97atPOkLyBPr-17" edge="1">
          <mxGeometry relative="1" as="geometry">
            <mxPoint x="405" y="130" as="targetPoint" />
          </mxGeometry>
        </mxCell>
        <mxCell id="oblVactN97atPOkLyBPr-13" value="Sign in" style="rounded=1;whiteSpace=wrap;html=1;arcSize=40;fillColor=#fff2cc;strokeColor=#d6b656;labelBackgroundColor=none;fontSize=18;" parent="1" vertex="1">
          <mxGeometry x="120" y="280" width="120" height="40" as="geometry" />
        </mxCell>
        <mxCell id="oblVactN97atPOkLyBPr-14" value="" style="edgeStyle=orthogonalEdgeStyle;html=1;verticalAlign=bottom;endArrow=open;endSize=8;strokeColor=#A8201A;rounded=0;labelBackgroundColor=none;fontColor=default;" parent="1" source="oblVactN97atPOkLyBPr-13" edge="1">
          <mxGeometry relative="1" as="geometry">
            <mxPoint x="430" y="770" as="targetPoint" />
            <Array as="points">
              <mxPoint x="180" y="710" />
              <mxPoint x="180" y="710" />
            </Array>
          </mxGeometry>
        </mxCell>
        <mxCell id="oblVactN97atPOkLyBPr-15" value="click on register" style="rounded=1;whiteSpace=wrap;html=1;arcSize=40;fillColor=#fff2cc;strokeColor=#d6b656;fontSize=18;" parent="1" vertex="1">
          <mxGeometry x="590" y="280" width="120" height="40" as="geometry" />
        </mxCell>
        <mxCell id="oblVactN97atPOkLyBPr-16" value="" style="edgeStyle=orthogonalEdgeStyle;html=1;verticalAlign=bottom;endArrow=open;endSize=8;strokeColor=#ff0000;rounded=0;fontColor=#143642;fillColor=#FAE5C7;" parent="1" source="oblVactN97atPOkLyBPr-15" edge="1">
          <mxGeometry relative="1" as="geometry">
            <mxPoint x="650" y="380" as="targetPoint" />
          </mxGeometry>
        </mxCell>
        <mxCell id="oblVactN97atPOkLyBPr-20" value="Complete register form" style="rounded=1;whiteSpace=wrap;html=1;arcSize=40;fontColor=#000000;fillColor=#ffffc0;strokeColor=#ff0000;" parent="1" vertex="1">
          <mxGeometry x="590" y="390" width="120" height="40" as="geometry" />
        </mxCell>
        <mxCell id="oblVactN97atPOkLyBPr-21" value="" style="edgeStyle=orthogonalEdgeStyle;html=1;verticalAlign=bottom;endArrow=open;endSize=8;strokeColor=#ff0000;rounded=0;fontColor=#143642;fillColor=#FAE5C7;" parent="1" source="oblVactN97atPOkLyBPr-20" edge="1">
          <mxGeometry relative="1" as="geometry">
            <mxPoint x="650" y="490" as="targetPoint" />
          </mxGeometry>
        </mxCell>
        <mxCell id="oblVactN97atPOkLyBPr-22" value="form ok" style="rhombus;whiteSpace=wrap;html=1;fontColor=#000000;fillColor=#ffffc0;strokeColor=#ff0000;" parent="1" vertex="1">
          <mxGeometry x="610" y="500" width="80" height="40" as="geometry" />
        </mxCell>
        <mxCell id="oblVactN97atPOkLyBPr-23" value="No" style="edgeStyle=orthogonalEdgeStyle;html=1;align=left;verticalAlign=bottom;endArrow=open;endSize=8;strokeColor=#ff0000;rounded=0;fontColor=#143642;fillColor=#FAE5C7;" parent="1" source="oblVactN97atPOkLyBPr-22" edge="1">
          <mxGeometry x="-1" relative="1" as="geometry">
            <mxPoint x="720" y="420" as="targetPoint" />
            <Array as="points">
              <mxPoint x="790" y="520" />
              <mxPoint x="790" y="410" />
              <mxPoint x="750" y="410" />
              <mxPoint x="750" y="420" />
            </Array>
          </mxGeometry>
        </mxCell>
        <mxCell id="oblVactN97atPOkLyBPr-24" value="&lt;font style=&quot;font-size: 13px;&quot;&gt;Yes&lt;/font&gt;" style="edgeStyle=orthogonalEdgeStyle;html=1;align=left;verticalAlign=top;endArrow=open;endSize=8;strokeColor=#ff0000;rounded=0;fontColor=#143642;fillColor=#FAE5C7;" parent="1" edge="1">
          <mxGeometry x="-0.4136" y="-20" relative="1" as="geometry">
            <mxPoint x="480" y="590" as="targetPoint" />
            <mxPoint x="600" y="520" as="sourcePoint" />
            <mxPoint x="-1" as="offset" />
          </mxGeometry>
        </mxCell>
        <mxCell id="oblVactN97atPOkLyBPr-26" value="" style="rhombus;whiteSpace=wrap;html=1;strokeColor=#0F8B8D;fontColor=#143642;fillColor=#FAE5C7;" parent="1" vertex="1">
          <mxGeometry x="440" y="730" width="80" height="80" as="geometry" />
        </mxCell>
        <mxCell id="oblVactN97atPOkLyBPr-27" value="Submit registeration form" style="rounded=1;whiteSpace=wrap;html=1;arcSize=40;fontColor=#000000;fillColor=#ffffc0;strokeColor=#ff0000;" parent="1" vertex="1">
          <mxGeometry x="420" y="600" width="120" height="40" as="geometry" />
        </mxCell>
        <mxCell id="oblVactN97atPOkLyBPr-28" value="" style="edgeStyle=orthogonalEdgeStyle;html=1;verticalAlign=bottom;endArrow=open;endSize=8;strokeColor=#ff0000;rounded=0;fontColor=#143642;fillColor=#FAE5C7;" parent="1" source="oblVactN97atPOkLyBPr-27" edge="1">
          <mxGeometry relative="1" as="geometry">
            <mxPoint x="480" y="720" as="targetPoint" />
          </mxGeometry>
        </mxCell>
        <mxCell id="oblVactN97atPOkLyBPr-32" value="" style="edgeStyle=orthogonalEdgeStyle;html=1;verticalAlign=bottom;endArrow=open;endSize=8;strokeColor=#ff0000;rounded=0;fontColor=#143642;fillColor=#FAE5C7;" parent="1" edge="1">
          <mxGeometry relative="1" as="geometry">
            <mxPoint x="479.17" y="880" as="targetPoint" />
            <mxPoint x="479.17" y="820" as="sourcePoint" />
          </mxGeometry>
        </mxCell>
        <mxCell id="oblVactN97atPOkLyBPr-33" value="Browse home" style="rounded=1;whiteSpace=wrap;html=1;arcSize=40;fontColor=#000000;fillColor=#ffffc0;strokeColor=#ff0000;" parent="1" vertex="1">
          <mxGeometry x="420" y="880" width="120" height="40" as="geometry" />
        </mxCell>
        <mxCell id="oblVactN97atPOkLyBPr-34" value="" style="edgeStyle=orthogonalEdgeStyle;html=1;verticalAlign=bottom;endArrow=open;endSize=8;strokeColor=#ff0000;rounded=0;fontColor=#143642;fillColor=#FAE5C7;" parent="1" source="oblVactN97atPOkLyBPr-33" edge="1">
          <mxGeometry relative="1" as="geometry">
            <mxPoint x="480" y="980" as="targetPoint" />
          </mxGeometry>
        </mxCell>
        <mxCell id="oblVactN97atPOkLyBPr-39" style="edgeStyle=orthogonalEdgeStyle;rounded=0;orthogonalLoop=1;jettySize=auto;html=1;strokeColor=#A8201A;fontColor=#143642;fillColor=#FAE5C7;entryX=0.5;entryY=0;entryDx=0;entryDy=0;" parent="1" source="oblVactN97atPOkLyBPr-35" target="oblVactN97atPOkLyBPr-42" edge="1">
          <mxGeometry relative="1" as="geometry">
            <mxPoint x="-370" y="1180" as="targetPoint" />
            <Array as="points">
              <mxPoint y="1030" />
              <mxPoint y="1180" />
              <mxPoint x="-10" y="1180" />
            </Array>
          </mxGeometry>
        </mxCell>
        <mxCell id="oblVactN97atPOkLyBPr-35" value="" style="rhombus;whiteSpace=wrap;html=1;strokeColor=#0F8B8D;fontColor=#143642;fillColor=#FAE5C7;" parent="1" vertex="1">
          <mxGeometry x="440" y="990" width="80" height="80" as="geometry" />
        </mxCell>
        <mxCell id="oblVactN97atPOkLyBPr-41" value="" style="edgeStyle=orthogonalEdgeStyle;html=1;verticalAlign=bottom;endArrow=open;endSize=8;strokeColor=#ff0000;rounded=0;fontColor=#143642;fillColor=#FAE5C7;" parent="1" edge="1">
          <mxGeometry relative="1" as="geometry">
            <mxPoint x="478" y="1190" as="targetPoint" />
            <mxPoint x="478.33" y="1089.86" as="sourcePoint" />
            <Array as="points">
              <mxPoint x="478" y="1069.86" />
              <mxPoint x="478" y="1069.86" />
            </Array>
          </mxGeometry>
        </mxCell>
        <mxCell id="oblVactN97atPOkLyBPr-42" value="Browse menue" style="rounded=1;whiteSpace=wrap;html=1;arcSize=40;fontColor=#000000;fillColor=#ffffc0;strokeColor=#ff0000;" parent="1" vertex="1">
          <mxGeometry x="-70" y="1210" width="120" height="40" as="geometry" />
        </mxCell>
        <mxCell id="oblVactN97atPOkLyBPr-43" value="" style="edgeStyle=orthogonalEdgeStyle;html=1;verticalAlign=bottom;endArrow=open;endSize=8;strokeColor=#ff0000;rounded=0;fontColor=#143642;fillColor=#FAE5C7;" parent="1" source="oblVactN97atPOkLyBPr-42" target="oblVactN97atPOkLyBPr-46" edge="1">
          <mxGeometry relative="1" as="geometry">
            <mxPoint x="-365" y="1320" as="targetPoint" />
          </mxGeometry>
        </mxCell>
        <mxCell id="oblVactN97atPOkLyBPr-44" value="Choose order" style="rounded=1;whiteSpace=wrap;html=1;arcSize=40;fontColor=#000000;fillColor=#ffffc0;strokeColor=#ff0000;" parent="1" vertex="1">
          <mxGeometry x="-120" y="1390" width="120" height="40" as="geometry" />
        </mxCell>
        <mxCell id="oblVactN97atPOkLyBPr-46" value="" style="shape=line;html=1;strokeWidth=6;strokeColor=#ff0000;fontColor=#143642;fillColor=#FAE5C7;" parent="1" vertex="1">
          <mxGeometry x="-160" y="1340" width="200" height="10" as="geometry" />
        </mxCell>
        <mxCell id="oblVactN97atPOkLyBPr-47" value="" style="edgeStyle=orthogonalEdgeStyle;html=1;verticalAlign=bottom;endArrow=open;endSize=8;strokeColor=#ff0000;rounded=0;fontColor=#143642;fillColor=#FAE5C7;entryX=0.5;entryY=0;entryDx=0;entryDy=0;" parent="1" source="oblVactN97atPOkLyBPr-46" target="oblVactN97atPOkLyBPr-44" edge="1">
          <mxGeometry relative="1" as="geometry">
            <mxPoint x="-365" y="1390" as="targetPoint" />
          </mxGeometry>
        </mxCell>
        <mxCell id="oblVactN97atPOkLyBPr-51" value="" style="edgeStyle=orthogonalEdgeStyle;html=1;verticalAlign=bottom;endArrow=open;endSize=8;strokeColor=#ff0000;rounded=0;fontColor=#143642;fillColor=#FAE5C7;" parent="1" edge="1">
          <mxGeometry relative="1" as="geometry">
            <mxPoint x="-70" y="1490" as="targetPoint" />
            <mxPoint x="-70" y="1430" as="sourcePoint" />
          </mxGeometry>
        </mxCell>
        <mxCell id="oblVactN97atPOkLyBPr-52" value="for each order" style="text;html=1;align=center;verticalAlign=middle;whiteSpace=wrap;rounded=0;fontColor=#143642;fontSize=18;" parent="1" vertex="1">
          <mxGeometry x="-150" y="1290" width="60" height="30" as="geometry" />
        </mxCell>
        <mxCell id="oblVactN97atPOkLyBPr-53" value="choose pay methode" style="rounded=1;whiteSpace=wrap;html=1;arcSize=40;fontColor=#000000;fillColor=#ffffc0;strokeColor=#ff0000;" parent="1" vertex="1">
          <mxGeometry x="-140" y="1490" width="120" height="40" as="geometry" />
        </mxCell>
        <mxCell id="oblVactN97atPOkLyBPr-54" value="" style="edgeStyle=orthogonalEdgeStyle;html=1;verticalAlign=bottom;endArrow=open;endSize=8;strokeColor=#ff0000;rounded=0;fontColor=#143642;fillColor=#FAE5C7;" parent="1" source="oblVactN97atPOkLyBPr-53" edge="1">
          <mxGeometry relative="1" as="geometry">
            <mxPoint x="-80" y="1600" as="targetPoint" />
          </mxGeometry>
        </mxCell>
        <mxCell id="oblVactN97atPOkLyBPr-55" value="" style="rhombus;whiteSpace=wrap;html=1;strokeColor=#0F8B8D;fontColor=#143642;fillColor=#FAE5C7;" parent="1" vertex="1">
          <mxGeometry x="-120" y="1600" width="80" height="80" as="geometry" />
        </mxCell>
        <mxCell id="oblVactN97atPOkLyBPr-57" value="" style="edgeStyle=orthogonalEdgeStyle;html=1;verticalAlign=bottom;endArrow=open;endSize=8;strokeColor=#ff0000;rounded=0;fontColor=#143642;fillColor=#FAE5C7;" parent="1" edge="1">
          <mxGeometry relative="1" as="geometry">
            <mxPoint x="-240" y="1664" as="targetPoint" />
            <mxPoint x="-120" y="1640" as="sourcePoint" />
          </mxGeometry>
        </mxCell>
        <mxCell id="oblVactN97atPOkLyBPr-59" value="pay online&amp;nbsp;" style="rounded=1;whiteSpace=wrap;html=1;arcSize=40;fontColor=#000000;fillColor=#ffffc0;strokeColor=#ff0000;" parent="1" vertex="1">
          <mxGeometry x="-300" y="1680" width="120" height="40" as="geometry" />
        </mxCell>
        <mxCell id="oblVactN97atPOkLyBPr-60" value="" style="edgeStyle=orthogonalEdgeStyle;html=1;verticalAlign=bottom;endArrow=open;endSize=8;strokeColor=#ff0000;rounded=0;fontColor=#143642;fillColor=#FAE5C7;" parent="1" source="oblVactN97atPOkLyBPr-59" edge="1">
          <mxGeometry relative="1" as="geometry">
            <mxPoint x="-240" y="1780" as="targetPoint" />
          </mxGeometry>
        </mxCell>
        <mxCell id="oblVactN97atPOkLyBPr-61" value="pay cash" style="rounded=1;whiteSpace=wrap;html=1;arcSize=40;fontColor=#000000;fillColor=#ffffc0;strokeColor=#ff0000;" parent="1" vertex="1">
          <mxGeometry x="30" y="1700" width="120" height="40" as="geometry" />
        </mxCell>
        <mxCell id="oblVactN97atPOkLyBPr-62" value="" style="edgeStyle=orthogonalEdgeStyle;html=1;verticalAlign=bottom;endArrow=open;endSize=8;strokeColor=#ff0000;rounded=0;fontColor=#143642;fillColor=#FAE5C7;entryX=0.5;entryY=0;entryDx=0;entryDy=0;" parent="1" source="oblVactN97atPOkLyBPr-61" target="oblVactN97atPOkLyBPr-64" edge="1">
          <mxGeometry relative="1" as="geometry">
            <mxPoint x="-210" y="1780" as="targetPoint" />
          </mxGeometry>
        </mxCell>
        <mxCell id="oblVactN97atPOkLyBPr-64" value="Handing money to delivery" style="rounded=1;whiteSpace=wrap;html=1;arcSize=40;fontColor=#000000;fillColor=#ffffc0;strokeColor=#ff0000;" parent="1" vertex="1">
          <mxGeometry x="30" y="1810" width="120" height="40" as="geometry" />
        </mxCell>
        <mxCell id="oblVactN97atPOkLyBPr-66" value="Go to&amp;nbsp;Online payment page" style="rounded=1;whiteSpace=wrap;html=1;arcSize=40;fontColor=#000000;fillColor=#ffffc0;strokeColor=#ff0000;" parent="1" vertex="1">
          <mxGeometry x="-300" y="1790" width="120" height="40" as="geometry" />
        </mxCell>
        <mxCell id="oblVactN97atPOkLyBPr-67" value="" style="edgeStyle=orthogonalEdgeStyle;html=1;verticalAlign=bottom;endArrow=open;endSize=8;strokeColor=#ff0000;rounded=0;fontColor=#143642;fillColor=#FAE5C7;entryX=0.5;entryY=0;entryDx=0;entryDy=0;" parent="1" source="oblVactN97atPOkLyBPr-66" target="oblVactN97atPOkLyBPr-68" edge="1">
          <mxGeometry relative="1" as="geometry">
            <mxPoint x="-530" y="1890" as="targetPoint" />
          </mxGeometry>
        </mxCell>
        <mxCell id="oblVactN97atPOkLyBPr-68" value="makes the payment" style="rounded=1;whiteSpace=wrap;html=1;arcSize=40;fontColor=#000000;fillColor=#ffffc0;strokeColor=#ff0000;" parent="1" vertex="1">
          <mxGeometry x="-300" y="1890" width="120" height="40" as="geometry" />
        </mxCell>
        <mxCell id="oblVactN97atPOkLyBPr-77" value="Book a table" style="rounded=1;whiteSpace=wrap;html=1;arcSize=40;fontColor=#000000;fillColor=#ffffc0;strokeColor=#ff0000;" parent="1" vertex="1">
          <mxGeometry x="430" y="1200" width="120" height="40" as="geometry" />
        </mxCell>
        <mxCell id="oblVactN97atPOkLyBPr-78" value="" style="edgeStyle=orthogonalEdgeStyle;html=1;verticalAlign=bottom;endArrow=open;endSize=8;strokeColor=#ff0000;rounded=0;fontColor=#143642;fillColor=#FAE5C7;entryX=0.5;entryY=0;entryDx=0;entryDy=0;" parent="1" source="oblVactN97atPOkLyBPr-77" target="oblVactN97atPOkLyBPr-79" edge="1">
          <mxGeometry relative="1" as="geometry">
            <mxPoint x="960" y="1410" as="targetPoint" />
          </mxGeometry>
        </mxCell>
        <mxCell id="oblVactN97atPOkLyBPr-79" value="Make a reservation" style="rounded=1;whiteSpace=wrap;html=1;arcSize=40;fontColor=#000000;fillColor=#ffffc0;strokeColor=#ff0000;" parent="1" vertex="1">
          <mxGeometry x="430" y="1350" width="120" height="40" as="geometry" />
        </mxCell>
        <mxCell id="oblVactN97atPOkLyBPr-80" value="" style="edgeStyle=orthogonalEdgeStyle;html=1;verticalAlign=bottom;endArrow=open;endSize=8;strokeColor=#ff0000;rounded=0;fontColor=#143642;fillColor=#FAE5C7;" parent="1" source="oblVactN97atPOkLyBPr-79" edge="1">
          <mxGeometry relative="1" as="geometry">
            <mxPoint x="500" y="1600" as="targetPoint" />
            <Array as="points">
              <mxPoint x="500" y="1570" />
            </Array>
          </mxGeometry>
        </mxCell>
        <mxCell id="oblVactN97atPOkLyBPr-92" value="" style="endArrow=classic;html=1;rounded=0;strokeColor=#A8201A;fontColor=#143642;fillColor=#FAE5C7;exitX=1;exitY=0.5;exitDx=0;exitDy=0;" parent="1" source="oblVactN97atPOkLyBPr-55" edge="1">
          <mxGeometry width="50" height="50" relative="1" as="geometry">
            <mxPoint x="-30" y="1640" as="sourcePoint" />
            <mxPoint x="90" y="1690" as="targetPoint" />
            <Array as="points">
              <mxPoint x="90" y="1640" />
            </Array>
          </mxGeometry>
        </mxCell>
        <mxCell id="oblVactN97atPOkLyBPr-99" value="" style="endArrow=classic;html=1;rounded=0;strokeColor=#A8201A;fontColor=#143642;fillColor=#FAE5C7;exitX=0.5;exitY=1;exitDx=0;exitDy=0;" parent="1" source="Pp8gO-9dRhNlvy0CMWui-9" edge="1">
          <mxGeometry width="50" height="50" relative="1" as="geometry">
            <mxPoint x="-20" y="2080" as="sourcePoint" />
            <mxPoint x="-20" y="2060" as="targetPoint" />
          </mxGeometry>
        </mxCell>
        <mxCell id="oblVactN97atPOkLyBPr-102" value="" style="endArrow=none;html=1;rounded=0;strokeColor=#A8201A;fontColor=#143642;fillColor=#FAE5C7;strokeWidth=4;" parent="1" edge="1">
          <mxGeometry width="50" height="50" relative="1" as="geometry">
            <mxPoint x="-370" y="3293" as="sourcePoint" />
            <mxPoint x="-360" y="30" as="targetPoint" />
          </mxGeometry>
        </mxCell>
        <mxCell id="oblVactN97atPOkLyBPr-103" value="Payment done" style="rhombus;whiteSpace=wrap;html=1;fontColor=#000000;fillColor=#ffffc0;strokeColor=#ff0000;" parent="1" vertex="1">
          <mxGeometry x="-67.5" y="2100" width="95" height="80" as="geometry" />
        </mxCell>
        <mxCell id="oblVactN97atPOkLyBPr-104" value="no" style="edgeStyle=orthogonalEdgeStyle;html=1;align=left;verticalAlign=bottom;endArrow=open;endSize=8;strokeColor=#ff0000;rounded=0;fontColor=#143642;fillColor=#FAE5C7;entryX=1;entryY=0.5;entryDx=0;entryDy=0;exitX=1;exitY=0.5;exitDx=0;exitDy=0;" parent="1" target="oblVactN97atPOkLyBPr-53" edge="1" source="oblVactN97atPOkLyBPr-103">
          <mxGeometry x="-1" relative="1" as="geometry">
            <mxPoint y="1540" as="targetPoint" />
            <mxPoint x="30" y="2120" as="sourcePoint" />
            <Array as="points">
              <mxPoint x="300" y="2120" />
              <mxPoint x="300" y="1520" />
              <mxPoint y="1520" />
              <mxPoint y="1510" />
            </Array>
          </mxGeometry>
        </mxCell>
        <mxCell id="oblVactN97atPOkLyBPr-105" value="yes" style="edgeStyle=orthogonalEdgeStyle;html=1;align=left;verticalAlign=top;endArrow=open;endSize=8;strokeColor=#ff0000;rounded=0;fontColor=#143642;fillColor=#FAE5C7;" parent="1" source="oblVactN97atPOkLyBPr-103" edge="1">
          <mxGeometry x="-0.5883" y="-20" relative="1" as="geometry">
            <mxPoint x="-550" y="2120" as="targetPoint" />
            <mxPoint x="1" as="offset" />
          </mxGeometry>
        </mxCell>
        <mxCell id="oblVactN97atPOkLyBPr-17" value="" style="ellipse;html=1;shape=startState;fillColor=#000000;strokeColor=#ff0000;fontColor=#143642;" parent="1" vertex="1">
          <mxGeometry x="390" y="60" width="30" height="30" as="geometry" />
        </mxCell>
        <mxCell id="oblVactN97atPOkLyBPr-107" value="" style="endArrow=none;html=1;rounded=0;strokeColor=#A8201A;fontColor=#143642;fillColor=#FAE5C7;strokeWidth=4;" parent="1" edge="1">
          <mxGeometry width="50" height="50" relative="1" as="geometry">
            <mxPoint x="-1690" y="50" as="sourcePoint" />
            <mxPoint x="830" y="50" as="targetPoint" />
          </mxGeometry>
        </mxCell>
        <mxCell id="oblVactN97atPOkLyBPr-108" value="Customer" style="text;html=1;align=center;verticalAlign=middle;whiteSpace=wrap;rounded=0;fontColor=#143642;fontSize=20;" parent="1" vertex="1">
          <mxGeometry x="370" y="10" width="60" height="30" as="geometry" />
        </mxCell>
        <mxCell id="oblVactN97atPOkLyBPr-109" value="Staff" style="text;html=1;align=center;verticalAlign=middle;whiteSpace=wrap;rounded=0;fontColor=#143642;fontSize=20;" parent="1" vertex="1">
          <mxGeometry x="-670" y="20" width="60" height="30" as="geometry" />
        </mxCell>
        <mxCell id="oblVactN97atPOkLyBPr-110" value="Make the request" style="rounded=1;whiteSpace=wrap;html=1;arcSize=40;fontColor=#000000;fillColor=#ffffc0;strokeColor=#ff0000;" parent="1" vertex="1">
          <mxGeometry x="-670" y="2100" width="120" height="40" as="geometry" />
        </mxCell>
        <mxCell id="oblVactN97atPOkLyBPr-111" value="" style="edgeStyle=orthogonalEdgeStyle;html=1;verticalAlign=bottom;endArrow=open;endSize=8;strokeColor=#ff0000;rounded=0;fontColor=#143642;fillColor=#FAE5C7;" parent="1" source="oblVactN97atPOkLyBPr-110" edge="1">
          <mxGeometry relative="1" as="geometry">
            <mxPoint x="-610" y="2240" as="targetPoint" />
          </mxGeometry>
        </mxCell>
        <mxCell id="oblVactN97atPOkLyBPr-112" value="The request has been executed" style="rhombus;whiteSpace=wrap;html=1;fontColor=#000000;fillColor=#ffffc0;strokeColor=#ff0000;" parent="1" vertex="1">
          <mxGeometry x="-690" y="2240" width="160" height="70" as="geometry" />
        </mxCell>
        <mxCell id="oblVactN97atPOkLyBPr-114" value="yes" style="edgeStyle=orthogonalEdgeStyle;html=1;align=left;verticalAlign=top;endArrow=open;endSize=8;strokeColor=#ff0000;rounded=0;fontColor=#143642;fillColor=#FAE5C7;" parent="1" source="oblVactN97atPOkLyBPr-112" edge="1">
          <mxGeometry x="-0.6461" y="-10" relative="1" as="geometry">
            <mxPoint x="-1190" y="2275" as="targetPoint" />
            <mxPoint x="1" as="offset" />
          </mxGeometry>
        </mxCell>
        <mxCell id="oblVactN97atPOkLyBPr-115" value="" style="endArrow=classic;html=1;rounded=0;strokeColor=#A8201A;fontColor=#143642;fillColor=#FAE5C7;exitX=1;exitY=0.5;exitDx=0;exitDy=0;" parent="1" source="oblVactN97atPOkLyBPr-112" edge="1">
          <mxGeometry width="50" height="50" relative="1" as="geometry">
            <mxPoint x="-460" y="2240" as="sourcePoint" />
            <mxPoint x="-540" y="2140" as="targetPoint" />
            <Array as="points">
              <mxPoint x="-480" y="2260" />
              <mxPoint x="-480" y="2150" />
            </Array>
          </mxGeometry>
        </mxCell>
        <mxCell id="oblVactN97atPOkLyBPr-116" value="No" style="text;html=1;align=center;verticalAlign=middle;whiteSpace=wrap;rounded=0;fontColor=#143642;" parent="1" vertex="1">
          <mxGeometry x="-550" y="2230" width="60" height="50" as="geometry" />
        </mxCell>
        <mxCell id="oblVactN97atPOkLyBPr-119" value="" style="endArrow=none;html=1;rounded=0;strokeColor=#A8201A;fontColor=#143642;fillColor=#FAE5C7;spacing=4;strokeWidth=4;" parent="1" edge="1">
          <mxGeometry width="50" height="50" relative="1" as="geometry">
            <mxPoint x="-850" y="3260" as="sourcePoint" />
            <mxPoint x="-850" y="30" as="targetPoint" />
          </mxGeometry>
        </mxCell>
        <mxCell id="oblVactN97atPOkLyBPr-120" value="Delivery" style="text;html=1;align=center;verticalAlign=middle;whiteSpace=wrap;rounded=0;fontColor=#143642;fontSize=20;" parent="1" vertex="1">
          <mxGeometry x="-1190" width="60" height="30" as="geometry" />
        </mxCell>
        <mxCell id="oblVactN97atPOkLyBPr-121" value="" style="points=[[0.145,0.145,0],[0.5,0,0],[0.855,0.145,0],[1,0.5,0],[0.855,0.855,0],[0.5,1,0],[0.145,0.855,0],[0,0.5,0]];shape=mxgraph.bpmn.event;html=1;verticalLabelPosition=bottom;labelBackgroundColor=#ffffff;verticalAlign=top;align=center;perimeter=ellipsePerimeter;outlineConnect=0;aspect=fixed;outline=end;symbol=cancel;strokeColor=#0F8B8D;fontColor=#143642;fillColor=#FAE5C7;" parent="1" vertex="1">
          <mxGeometry x="480" y="1600" width="50" height="50" as="geometry" />
        </mxCell>
        <mxCell id="oblVactN97atPOkLyBPr-123" value="Receiving the request from the crew" style="rounded=1;whiteSpace=wrap;html=1;arcSize=40;fontColor=#000000;fillColor=#ffffc0;strokeColor=#ff0000;" parent="1" vertex="1">
          <mxGeometry x="-1320" y="2225" width="120" height="65" as="geometry" />
        </mxCell>
        <mxCell id="oblVactN97atPOkLyBPr-126" value="Access to the customer&#39;s address" style="rounded=1;whiteSpace=wrap;html=1;arcSize=40;fontColor=#000000;fillColor=#ffffc0;strokeColor=#ff0000;" parent="1" vertex="1">
          <mxGeometry x="-1320" y="2370" width="120" height="40" as="geometry" />
        </mxCell>
        <mxCell id="oblVactN97atPOkLyBPr-127" value="" style="edgeStyle=orthogonalEdgeStyle;html=1;verticalAlign=bottom;endArrow=open;endSize=8;strokeColor=#ff0000;rounded=0;fontColor=#143642;fillColor=#FAE5C7;" parent="1" source="oblVactN97atPOkLyBPr-126" edge="1">
          <mxGeometry relative="1" as="geometry">
            <mxPoint x="-1260" y="2500" as="targetPoint" />
          </mxGeometry>
        </mxCell>
        <mxCell id="oblVactN97atPOkLyBPr-128" value="" style="endArrow=classic;html=1;rounded=0;strokeColor=#A8201A;fontColor=#143642;fillColor=#FAE5C7;exitX=0.5;exitY=1;exitDx=0;exitDy=0;" parent="1" source="oblVactN97atPOkLyBPr-123" edge="1">
          <mxGeometry width="50" height="50" relative="1" as="geometry">
            <mxPoint x="-1210" y="2460" as="sourcePoint" />
            <mxPoint x="-1260" y="2370" as="targetPoint" />
          </mxGeometry>
        </mxCell>
        <mxCell id="oblVactN97atPOkLyBPr-129" value="" style="shape=line;html=1;strokeWidth=6;strokeColor=#ff0000;fontColor=#143642;fillColor=#FAE5C7;" parent="1" vertex="1">
          <mxGeometry x="-1370" y="2500" width="200" height="10" as="geometry" />
        </mxCell>
        <mxCell id="oblVactN97atPOkLyBPr-130" value="" style="edgeStyle=orthogonalEdgeStyle;html=1;verticalAlign=bottom;endArrow=open;endSize=8;strokeColor=#ff0000;rounded=0;fontColor=#143642;fillColor=#FAE5C7;" parent="1" source="oblVactN97atPOkLyBPr-129" edge="1">
          <mxGeometry relative="1" as="geometry">
            <mxPoint x="-1340" y="2620" as="targetPoint" />
            <Array as="points">
              <mxPoint x="-1340" y="2610" />
              <mxPoint x="-1340" y="2610" />
            </Array>
          </mxGeometry>
        </mxCell>
        <mxCell id="oblVactN97atPOkLyBPr-131" value="" style="endArrow=classic;html=1;rounded=0;strokeColor=#A8201A;fontColor=#143642;fillColor=#FAE5C7;exitX=0.75;exitY=0.5;exitDx=0;exitDy=0;exitPerimeter=0;" parent="1" source="oblVactN97atPOkLyBPr-129" edge="1">
          <mxGeometry width="50" height="50" relative="1" as="geometry">
            <mxPoint x="-1210" y="2460" as="sourcePoint" />
            <mxPoint x="-1220" y="2620" as="targetPoint" />
          </mxGeometry>
        </mxCell>
        <mxCell id="oblVactN97atPOkLyBPr-132" value="Deliver the order to the customer" style="rounded=1;whiteSpace=wrap;html=1;arcSize=40;fontColor=#000000;fillColor=#ffffc0;strokeColor=#ff0000;" parent="1" vertex="1">
          <mxGeometry x="-1275" y="2620" width="120" height="40" as="geometry" />
        </mxCell>
        <mxCell id="oblVactN97atPOkLyBPr-133" value="" style="edgeStyle=orthogonalEdgeStyle;html=1;verticalAlign=bottom;endArrow=open;endSize=8;strokeColor=#ff0000;rounded=0;fontColor=#143642;fillColor=#FAE5C7;entryX=0.574;entryY=0.138;entryDx=0;entryDy=0;entryPerimeter=0;" parent="1" source="oblVactN97atPOkLyBPr-132" target="oblVactN97atPOkLyBPr-146" edge="1">
          <mxGeometry relative="1" as="geometry">
            <mxPoint x="-1245" y="2830" as="targetPoint" />
          </mxGeometry>
        </mxCell>
        <mxCell id="oblVactN97atPOkLyBPr-134" value="The customer&#39;s payment method is cash" style="rhombus;whiteSpace=wrap;html=1;fontColor=#000000;fillColor=#ffffc0;strokeColor=#ff0000;" parent="1" vertex="1">
          <mxGeometry x="-1380" y="2620" width="80" height="110" as="geometry" />
        </mxCell>
        <mxCell id="oblVactN97atPOkLyBPr-135" value="yes" style="edgeStyle=orthogonalEdgeStyle;html=1;align=left;verticalAlign=bottom;endArrow=open;endSize=8;strokeColor=#ff0000;rounded=0;fontColor=#143642;fillColor=#FAE5C7;" parent="1" source="oblVactN97atPOkLyBPr-134" edge="1">
          <mxGeometry x="-0.8202" y="-15" relative="1" as="geometry">
            <mxPoint x="-1530" y="2675" as="targetPoint" />
            <Array as="points">
              <mxPoint x="-1490" y="2675" />
              <mxPoint x="-1490" y="2675" />
            </Array>
            <mxPoint as="offset" />
          </mxGeometry>
        </mxCell>
        <mxCell id="oblVactN97atPOkLyBPr-139" value="" style="endArrow=classic;html=1;rounded=0;strokeColor=#A8201A;fontColor=#143642;fillColor=#FAE5C7;exitX=0.5;exitY=1;exitDx=0;exitDy=0;" parent="1" source="oblVactN97atPOkLyBPr-134" target="oblVactN97atPOkLyBPr-146" edge="1">
          <mxGeometry width="50" height="50" relative="1" as="geometry">
            <mxPoint x="-1130" y="2730" as="sourcePoint" />
            <mxPoint x="-1270" y="2830" as="targetPoint" />
            <Array as="points">
              <mxPoint x="-1340" y="2800" />
              <mxPoint x="-1310" y="2800" />
              <mxPoint x="-1275" y="2800" />
            </Array>
          </mxGeometry>
        </mxCell>
        <mxCell id="oblVactN97atPOkLyBPr-142" value="No" style="text;html=1;align=center;verticalAlign=middle;whiteSpace=wrap;rounded=0;fontColor=#143642;" parent="1" vertex="1">
          <mxGeometry x="-1400" y="2720" width="60" height="30" as="geometry" />
        </mxCell>
        <mxCell id="oblVactN97atPOkLyBPr-143" value="Take feedback" style="rounded=1;whiteSpace=wrap;html=1;arcSize=40;fontColor=#000000;fillColor=#ffffc0;strokeColor=#ff0000;" parent="1" vertex="1">
          <mxGeometry x="-1335" y="2880" width="120" height="40" as="geometry" />
        </mxCell>
        <mxCell id="oblVactN97atPOkLyBPr-144" value="" style="edgeStyle=orthogonalEdgeStyle;html=1;verticalAlign=bottom;endArrow=open;endSize=8;strokeColor=#ff0000;rounded=0;fontColor=#143642;fillColor=#FAE5C7;" parent="1" source="oblVactN97atPOkLyBPr-150" edge="1">
          <mxGeometry relative="1" as="geometry">
            <mxPoint x="-1275" y="3010" as="targetPoint" />
            <mxPoint x="-1250" y="2920" as="sourcePoint" />
          </mxGeometry>
        </mxCell>
        <mxCell id="oblVactN97atPOkLyBPr-146" value="" style="shape=line;html=1;strokeWidth=6;strokeColor=#ff0000;fontColor=#143642;fillColor=#FAE5C7;" parent="1" vertex="1">
          <mxGeometry x="-1497" y="2840" width="445" height="10" as="geometry" />
        </mxCell>
        <mxCell id="oblVactN97atPOkLyBPr-147" value="" style="endArrow=classic;html=1;rounded=0;strokeColor=#A8201A;fontColor=#143642;fillColor=#FAE5C7;" parent="1" source="oblVactN97atPOkLyBPr-146" target="oblVactN97atPOkLyBPr-143" edge="1">
          <mxGeometry width="50" height="50" relative="1" as="geometry">
            <mxPoint x="-1250" y="2730" as="sourcePoint" />
            <mxPoint x="-1200" y="2680" as="targetPoint" />
          </mxGeometry>
        </mxCell>
        <mxCell id="oblVactN97atPOkLyBPr-148" value="Receiving money" style="rounded=1;whiteSpace=wrap;html=1;arcSize=40;fontColor=#000000;fillColor=#ffffc0;strokeColor=#ff0000;" parent="1" vertex="1">
          <mxGeometry x="-1650" y="2660" width="120" height="40" as="geometry" />
        </mxCell>
        <mxCell id="oblVactN97atPOkLyBPr-149" value="" style="edgeStyle=orthogonalEdgeStyle;html=1;verticalAlign=bottom;endArrow=open;endSize=8;strokeColor=#ff0000;rounded=0;fontColor=#143642;fillColor=#FAE5C7;" parent="1" source="oblVactN97atPOkLyBPr-148" edge="1">
          <mxGeometry relative="1" as="geometry">
            <mxPoint x="-1460" y="2840" as="targetPoint" />
            <Array as="points">
              <mxPoint x="-1580" y="2750" />
            </Array>
          </mxGeometry>
        </mxCell>
        <mxCell id="oblVactN97atPOkLyBPr-152" value="" style="edgeStyle=orthogonalEdgeStyle;html=1;verticalAlign=bottom;endArrow=open;endSize=8;strokeColor=#ff0000;rounded=0;fontColor=#143642;fillColor=#FAE5C7;exitX=0.5;exitY=1;exitDx=0;exitDy=0;" parent="1" source="oblVactN97atPOkLyBPr-143" target="oblVactN97atPOkLyBPr-150" edge="1">
          <mxGeometry relative="1" as="geometry">
            <mxPoint x="-1275" y="3070" as="targetPoint" />
            <mxPoint x="-1250" y="2920" as="sourcePoint" />
          </mxGeometry>
        </mxCell>
        <mxCell id="oblVactN97atPOkLyBPr-150" value="Back to the restaurant" style="rounded=1;whiteSpace=wrap;html=1;arcSize=40;fontColor=#000000;fillColor=#ffffc0;strokeColor=#ff0000;" parent="1" vertex="1">
          <mxGeometry x="-1335" y="2940" width="120" height="50" as="geometry" />
        </mxCell>
        <mxCell id="oblVactN97atPOkLyBPr-153" value="Hand mony to the accountant" style="rounded=1;whiteSpace=wrap;html=1;arcSize=40;fontColor=#000000;fillColor=#ffffc0;strokeColor=#ff0000;" parent="1" vertex="1">
          <mxGeometry x="-1335" y="3100" width="120" height="40" as="geometry" />
        </mxCell>
        <mxCell id="oblVactN97atPOkLyBPr-154" value="" style="edgeStyle=orthogonalEdgeStyle;html=1;verticalAlign=bottom;endArrow=open;endSize=8;strokeColor=#ff0000;rounded=0;fontColor=#143642;fillColor=#FAE5C7;" parent="1" source="oblVactN97atPOkLyBPr-153" edge="1">
          <mxGeometry relative="1" as="geometry">
            <mxPoint x="-1275" y="3160" as="targetPoint" />
          </mxGeometry>
        </mxCell>
        <mxCell id="oblVactN97atPOkLyBPr-155" value="Hand feedback to manager" style="rounded=1;whiteSpace=wrap;html=1;arcSize=40;fontColor=#000000;fillColor=#ffffc0;strokeColor=#ff0000;" parent="1" vertex="1">
          <mxGeometry x="-1334.5" y="3160" width="120" height="40" as="geometry" />
        </mxCell>
        <mxCell id="oblVactN97atPOkLyBPr-156" value="" style="edgeStyle=orthogonalEdgeStyle;html=1;verticalAlign=bottom;endArrow=open;endSize=8;strokeColor=#ff0000;rounded=0;fontColor=#143642;fillColor=#FAE5C7;" parent="1" source="oblVactN97atPOkLyBPr-155" edge="1">
          <mxGeometry relative="1" as="geometry">
            <mxPoint x="-1274.5" y="3260" as="targetPoint" />
          </mxGeometry>
        </mxCell>
        <mxCell id="oblVactN97atPOkLyBPr-157" value="" style="ellipse;html=1;shape=endState;fillColor=#000000;strokeColor=#ff0000;fontColor=#143642;" parent="1" vertex="1">
          <mxGeometry x="-1290" y="3260" width="30" height="30" as="geometry" />
        </mxCell>
        <mxCell id="Pp8gO-9dRhNlvy0CMWui-3" value="enter web restaurant" style="rounded=1;whiteSpace=wrap;html=1;arcSize=40;fillColor=#fff2cc;strokeColor=#d6b656;" vertex="1" parent="1">
          <mxGeometry x="350" y="130" width="120" height="40" as="geometry" />
        </mxCell>
        <mxCell id="Pp8gO-9dRhNlvy0CMWui-4" value="" style="edgeStyle=orthogonalEdgeStyle;html=1;verticalAlign=bottom;endArrow=open;endSize=8;strokeColor=#d6b656;rounded=0;fillColor=#fff2cc;" edge="1" source="Pp8gO-9dRhNlvy0CMWui-3" parent="1">
          <mxGeometry relative="1" as="geometry">
            <mxPoint x="410" y="230" as="targetPoint" />
          </mxGeometry>
        </mxCell>
        <mxCell id="Pp8gO-9dRhNlvy0CMWui-5" value="Have account" style="rhombus;whiteSpace=wrap;html=1;fontColor=#000000;fillColor=#ffffc0;strokeColor=#ff0000;" vertex="1" parent="1">
          <mxGeometry x="360" y="230" width="110" height="40" as="geometry" />
        </mxCell>
        <mxCell id="Pp8gO-9dRhNlvy0CMWui-6" value="no" style="edgeStyle=orthogonalEdgeStyle;html=1;align=left;verticalAlign=bottom;endArrow=open;endSize=8;strokeColor=#ff0000;rounded=0;" edge="1" source="Pp8gO-9dRhNlvy0CMWui-5" parent="1">
          <mxGeometry x="-0.6199" relative="1" as="geometry">
            <mxPoint x="630" y="280" as="targetPoint" />
            <mxPoint as="offset" />
          </mxGeometry>
        </mxCell>
        <mxCell id="Pp8gO-9dRhNlvy0CMWui-7" value="yes" style="edgeStyle=orthogonalEdgeStyle;html=1;align=left;verticalAlign=top;endArrow=open;endSize=8;strokeColor=#ff0000;rounded=0;entryX=0.5;entryY=0;entryDx=0;entryDy=0;" edge="1" source="Pp8gO-9dRhNlvy0CMWui-5" parent="1" target="oblVactN97atPOkLyBPr-13">
          <mxGeometry x="-0.2727" y="-20" relative="1" as="geometry">
            <mxPoint x="490" y="370" as="targetPoint" />
            <mxPoint as="offset" />
          </mxGeometry>
        </mxCell>
        <mxCell id="Pp8gO-9dRhNlvy0CMWui-9" value="" style="rhombus;fillColor=#ffe6cc;strokeColor=#d79b00;" vertex="1" parent="1">
          <mxGeometry x="-60" y="1950" width="80" height="80" as="geometry" />
        </mxCell>
        <mxCell id="Pp8gO-9dRhNlvy0CMWui-10" value="" style="endArrow=classic;html=1;rounded=0;fillColor=#f8cecc;strokeColor=#b85450;entryX=0;entryY=0.5;entryDx=0;entryDy=0;" edge="1" parent="1" target="Pp8gO-9dRhNlvy0CMWui-9">
          <mxGeometry width="50" height="50" relative="1" as="geometry">
            <mxPoint x="-220" y="1920" as="sourcePoint" />
            <mxPoint x="-170" y="1900" as="targetPoint" />
            <Array as="points">
              <mxPoint x="-220" y="1990" />
            </Array>
          </mxGeometry>
        </mxCell>
        <mxCell id="Pp8gO-9dRhNlvy0CMWui-11" value="" style="endArrow=classic;html=1;rounded=0;exitX=0.75;exitY=1;exitDx=0;exitDy=0;entryX=1;entryY=0.5;entryDx=0;entryDy=0;fillColor=#f8cecc;strokeColor=#b85450;" edge="1" parent="1" source="oblVactN97atPOkLyBPr-64" target="Pp8gO-9dRhNlvy0CMWui-9">
          <mxGeometry width="50" height="50" relative="1" as="geometry">
            <mxPoint x="-220" y="1950" as="sourcePoint" />
            <mxPoint x="-170" y="1900" as="targetPoint" />
            <Array as="points">
              <mxPoint x="120" y="1990" />
            </Array>
          </mxGeometry>
        </mxCell>
        <mxCell id="Pp8gO-9dRhNlvy0CMWui-13" value="" style="shape=line;html=1;strokeWidth=6;strokeColor=#ff0000;fontColor=#143642;fillColor=#FAE5C7;" vertex="1" parent="1">
          <mxGeometry x="-130" y="2060" width="200" height="10" as="geometry" />
        </mxCell>
        <mxCell id="Pp8gO-9dRhNlvy0CMWui-14" value="" style="endArrow=classic;html=1;rounded=0;entryX=0.5;entryY=0;entryDx=0;entryDy=0;fillColor=#f8cecc;strokeColor=#b85450;exitX=0.547;exitY=0.867;exitDx=0;exitDy=0;exitPerimeter=0;" edge="1" parent="1" source="Pp8gO-9dRhNlvy0CMWui-13" target="oblVactN97atPOkLyBPr-103">
          <mxGeometry width="50" height="50" relative="1" as="geometry">
            <mxPoint x="-20" y="2080" as="sourcePoint" />
            <mxPoint x="-10" y="2000" as="targetPoint" />
          </mxGeometry>
        </mxCell>
        <mxCell id="Pp8gO-9dRhNlvy0CMWui-16" value="delivery take money" style="rhombus;fillColor=#ffe6cc;strokeColor=#d79b00;" vertex="1" parent="1">
          <mxGeometry x="-1340" y="3010" width="120" height="50" as="geometry" />
        </mxCell>
        <mxCell id="Pp8gO-9dRhNlvy0CMWui-17" value="yes" style="endArrow=classic;html=1;rounded=0;exitX=0;exitY=0.5;exitDx=0;exitDy=0;fillColor=#f8cecc;strokeColor=#b85450;" edge="1" parent="1" source="Pp8gO-9dRhNlvy0CMWui-16">
          <mxGeometry x="-0.6863" width="50" height="50" relative="1" as="geometry">
            <mxPoint x="-1290" y="3060" as="sourcePoint" />
            <mxPoint x="-1340" y="3130" as="targetPoint" />
            <Array as="points">
              <mxPoint x="-1420" y="3035" />
              <mxPoint x="-1420" y="3130" />
            </Array>
            <mxPoint as="offset" />
          </mxGeometry>
        </mxCell>
        <mxCell id="Pp8gO-9dRhNlvy0CMWui-18" value="no" style="endArrow=classic;html=1;rounded=0;exitX=1;exitY=0.5;exitDx=0;exitDy=0;fillColor=#f8cecc;strokeColor=#b85450;" edge="1" parent="1" source="Pp8gO-9dRhNlvy0CMWui-16">
          <mxGeometry x="-0.7288" width="50" height="50" relative="1" as="geometry">
            <mxPoint x="-1290" y="3060" as="sourcePoint" />
            <mxPoint x="-1210" y="3180" as="targetPoint" />
            <Array as="points">
              <mxPoint x="-1140" y="3035" />
              <mxPoint x="-1140" y="3180" />
            </Array>
            <mxPoint as="offset" />
          </mxGeometry>
        </mxCell>
      </root>
    </mxGraphModel>
  </diagram>
</mxfile>
